<svg width="158" height="30" viewBox="0 0 158 30" fill="none" xmlns="http://www.w3.org/2000/svg">
<path d="M4.84533 29.4053C3.80711 29.4053 2.86844 29.2702 2.02933 29C1.19022 28.7156 0.621333 28.4311 0.322667 28.1467L0.258667 23.7307C0.728 23.9867 1.10489 24.1573 1.38933 24.2427C1.67378 24.328 2.04356 24.3707 2.49867 24.3707C3.26667 24.3707 3.87111 24.1431 4.312 23.688C4.76711 23.2329 4.99467 22.4649 4.99467 21.384V5.87467L3.97067 3.99733H11.928V20.9787C11.928 21.9742 11.8711 22.8631 11.7573 23.6453C11.6578 24.4133 11.4516 25.1742 11.1387 25.928C10.8258 26.6676 10.4133 27.2862 9.90133 27.784C9.38933 28.2676 8.70667 28.6587 7.85333 28.9573C7 29.256 5.99733 29.4053 4.84533 29.4053ZM24.2183 29.448C22.7534 29.448 21.4521 29.3058 20.3143 29.0213C19.1908 28.7369 18.2663 28.3529 17.541 27.8693C16.8299 27.3858 16.2397 26.7884 15.7703 26.0773C15.3152 25.352 14.9952 24.5911 14.8103 23.7947C14.6254 22.9982 14.533 22.1164 14.533 21.1493V3.99733H22.1277V20.1893C22.1277 21.9956 22.3126 23.24 22.6823 23.9227C23.0663 24.5911 23.621 24.9253 24.3463 24.9253C24.7446 24.9253 25.093 24.8613 25.3917 24.7333C25.6903 24.5911 25.9677 24.3564 26.2237 24.0293C26.4797 23.688 26.6717 23.2044 26.7997 22.5787C26.9419 21.9387 27.013 21.1636 27.013 20.2533V3.99733H33.7543V21.2773C33.7543 22.2302 33.669 23.0907 33.4983 23.8587C33.3419 24.6267 33.0432 25.3733 32.6023 26.0987C32.1757 26.8098 31.6068 27.4071 30.8957 27.8907C30.1988 28.36 29.2814 28.7369 28.1437 29.0213C27.0201 29.3058 25.7117 29.448 24.2183 29.448ZM53.8833 24.8187C54.8931 24.8187 55.6327 24.5342 56.102 23.9653C56.5713 23.3964 56.806 22.7209 56.806 21.9387V20.4453C56.806 19.5209 56.5073 18.8667 55.91 18.4827C55.3127 18.0844 54.6371 17.8853 53.8833 17.8853H52.2193V24.8187H53.8833ZM56.5073 10.3973C56.5073 9.544 56.2727 8.95378 55.8033 8.62667C55.334 8.28533 54.6584 8.11467 53.7767 8.11467H52.2193V14.28H53.9473C54.7722 14.28 55.4051 13.96 55.846 13.32C56.2869 12.6658 56.5073 11.8693 56.5073 10.9307V10.3973ZM55.334 29.192C54.2247 29.192 52.7882 29.1636 51.0247 29.1067C49.2611 29.0498 47.9953 29.0142 47.2273 29H45.1793V3.99733H48.87C49.766 3.99733 50.79 3.96889 51.942 3.912C53.094 3.84089 53.926 3.80533 54.438 3.80533C56.102 3.80533 57.5029 3.94044 58.6407 4.21067C59.7927 4.48089 60.6958 4.88622 61.35 5.42667C62.0042 5.96711 62.4664 6.59289 62.7367 7.304C63.0211 8.01511 63.1633 8.86133 63.1633 9.84267C63.1633 11.3502 62.8149 12.6444 62.118 13.7253C61.4211 14.8062 60.4113 15.4818 59.0887 15.752C62.4451 16.0507 64.1233 18.0204 64.1233 21.6613C64.1233 22.7564 63.9598 23.752 63.6327 24.648C63.3056 25.5298 62.8007 26.3191 62.118 27.016C61.4496 27.6987 60.5393 28.232 59.3873 28.616C58.2353 29 56.8842 29.192 55.334 29.192ZM78.3835 29L77.4235 25.0107H71.3648L70.5542 29H64.2822L70.7888 5.72533L70.2768 3.99733H79.0875L86.2128 29H78.3835ZM74.1168 11.336L72.2395 20.6587H76.3782L74.1168 11.336ZM93.8383 29H87.0543V6.00267L86.009 3.99733H93.8597L97.785 12.104L101.54 20.1893L100.494 10.696V3.99733H107.3V29H100.793L95.7157 19.1227L92.5797 12.936L93.8383 21.128V29ZM122.275 29C122.105 28.7867 121.735 27.9547 121.166 26.504C120.611 25.0391 119.957 23.3893 119.203 21.5547C118.464 19.7058 117.81 18.3049 117.241 17.352V29H110.179V3.99733H117.241V15.9653L122.553 3.99733H129.657L123.299 15.7307C123.712 16.0151 124.259 16.7902 124.942 18.056C125.625 19.3218 126.265 20.6516 126.862 22.0453C127.459 23.4391 128.078 24.84 128.718 26.248C129.358 27.6418 129.827 28.5591 130.126 29H122.275ZM131.732 15.048L133.013 0.455999H138.623L135.444 15.048H131.732ZM149 29.448C147.905 29.448 146.881 29.3484 145.928 29.1493C144.989 28.9644 144.2 28.7156 143.56 28.4027C142.92 28.0898 142.393 27.7911 141.981 27.5067C141.583 27.2222 141.249 26.9378 140.978 26.6533L141.512 21.4693C142.095 22.2516 142.877 22.9342 143.858 23.5173C144.84 24.0862 145.899 24.3707 147.037 24.3707C148.175 24.3707 148.993 24.2498 149.49 24.008C150.002 23.7662 150.258 23.3253 150.258 22.6853C150.258 22.0027 149.967 21.4196 149.384 20.936C148.815 20.4524 147.826 19.8693 146.418 19.1867C145.906 18.9307 145.473 18.7031 145.117 18.504C144.761 18.2907 144.285 17.9493 143.688 17.48C143.105 16.9964 142.628 16.4987 142.258 15.9867C141.889 15.4604 141.561 14.792 141.277 13.9813C140.993 13.1564 140.85 12.2747 140.85 11.336C140.85 6.25867 143.716 3.72 149.448 3.72C150.358 3.72 151.211 3.81956 152.008 4.01867C152.818 4.20356 153.451 4.40978 153.906 4.63733C154.361 4.86489 154.774 5.13511 155.144 5.448C155.528 5.74667 155.769 5.96 155.869 6.088C155.969 6.20178 156.04 6.29422 156.082 6.36533L155.016 10.4827C154.461 9.82844 153.764 9.34489 152.925 9.032C152.1 8.70489 151.311 8.54133 150.557 8.54133C148.737 8.54133 147.826 9.11022 147.826 10.248C147.826 10.5467 147.883 10.8169 147.997 11.0587C148.111 11.3004 148.296 11.5209 148.552 11.72C148.808 11.9191 149.042 12.0898 149.256 12.232C149.483 12.3742 149.789 12.552 150.173 12.7653C150.571 12.9644 150.87 13.128 151.069 13.256C153.145 14.1378 154.667 15.1831 155.634 16.392C156.616 17.6009 157.106 19.0729 157.106 20.808C157.106 23.624 156.409 25.7716 155.016 27.2507C153.636 28.7156 151.631 29.448 149 29.448Z" fill="white"/>
</svg>
