<svg width="44" height="25" viewBox="0 0 44 25" fill="none" xmlns="http://www.w3.org/2000/svg">
<path fill-rule="evenodd" clip-rule="evenodd" d="M0 1.85885C0 1.41736 0.257539 0.993955 0.715961 0.681775C1.17438 0.369595 1.79614 0.194214 2.44444 0.194214H41.5556C42.2039 0.194214 42.8256 0.369595 43.284 0.681775C43.7425 0.993955 44 1.41736 44 1.85885V15.1759C44 15.6174 43.7425 16.0408 43.284 16.353C42.8256 16.6652 42.2039 16.8406 41.5556 16.8406H2.44444C1.79614 16.8406 1.17438 16.6652 0.715961 16.353C0.257539 16.0408 0 15.6174 0 15.1759V1.85885ZM29.3333 8.5174C29.3333 9.84187 28.5607 11.1121 27.1854 12.0486C25.8102 12.9852 23.9449 13.5113 22 13.5113C20.0551 13.5113 18.1898 12.9852 16.8146 12.0486C15.4393 11.1121 14.6667 9.84187 14.6667 8.5174C14.6667 7.19293 15.4393 5.92271 16.8146 4.98617C18.1898 4.04963 20.0551 3.52349 22 3.52349C23.9449 3.52349 25.8102 4.04963 27.1854 4.98617C28.5607 5.92271 29.3333 7.19293 29.3333 8.5174ZM7.33333 10.182C7.98164 10.182 8.60339 10.0067 9.06182 9.69448C9.52024 9.3823 9.77778 8.95889 9.77778 8.5174C9.77778 8.07591 9.52024 7.6525 9.06182 7.34032C8.60339 7.02814 7.98164 6.85276 7.33333 6.85276C6.68503 6.85276 6.06327 7.02814 5.60485 7.34032C5.14643 7.6525 4.88889 8.07591 4.88889 8.5174C4.88889 8.95889 5.14643 9.3823 5.60485 9.69448C6.06327 10.0067 6.68503 10.182 7.33333 10.182ZM39.1111 8.5174C39.1111 8.95889 38.8536 9.3823 38.3952 9.69448C37.9367 10.0067 37.315 10.182 36.6667 10.182C36.0184 10.182 35.3966 10.0067 34.9382 9.69448C34.4798 9.3823 34.2222 8.95889 34.2222 8.5174C34.2222 8.07591 34.4798 7.6525 34.9382 7.34032C35.3966 7.02814 36.0184 6.85276 36.6667 6.85276C37.315 6.85276 37.9367 7.02814 38.3952 7.34032C38.8536 7.6525 39.1111 8.07591 39.1111 8.5174ZM1.83333 19.3375C1.3471 19.3375 0.880788 19.4691 0.536971 19.7032C0.193154 19.9373 0 20.2549 0 20.586C0 20.9171 0.193154 21.2347 0.536971 21.4688C0.880788 21.703 1.3471 21.8345 1.83333 21.8345C12.6304 21.8345 23.0829 22.8383 32.9976 24.7143C35.7133 25.2287 38.5 23.862 38.5 21.8911V20.586C38.5 20.2549 38.3068 19.9373 37.963 19.7032C37.6192 19.4691 37.1529 19.3375 36.6667 19.3375C36.1804 19.3375 35.7141 19.4691 35.3703 19.7032C35.0265 19.9373 34.8333 20.2549 34.8333 20.586V21.8911C34.8294 21.9602 34.8023 22.0277 34.7541 22.0885C34.706 22.1493 34.638 22.2019 34.5554 22.242C34.4728 22.2822 34.3778 22.309 34.2777 22.3203C34.1776 22.3316 34.075 22.3271 33.9778 22.3073C23.51 20.3302 12.6962 19.3311 1.83333 19.3375Z" fill="white"/>
</svg>
