<svg width="26" height="29" viewBox="0 0 26 29" fill="none" xmlns="http://www.w3.org/2000/svg">
<path d="M13 10.904C12.3624 10.904 11.739 11.1149 11.2088 11.51C10.6787 11.9052 10.2654 12.4668 10.0214 13.1239C9.77739 13.781 9.71355 14.504 9.83795 15.2015C9.96235 15.8991 10.2694 16.5398 10.7203 17.0428C11.1712 17.5457 11.7456 17.8882 12.371 18.0269C12.9964 18.1657 13.6447 18.0944 14.2338 17.8223C14.8229 17.5501 15.3264 17.0892 15.6807 16.4978C16.0349 15.9065 16.224 15.2112 16.224 14.5C16.224 14.0278 16.1406 13.5602 15.9786 13.1239C15.8166 12.6876 15.5791 12.2912 15.2797 11.9572C14.9803 11.6233 14.6249 11.3584 14.2338 11.1777C13.8426 10.997 13.4234 10.904 13 10.904ZM25.909 7.3515C25.9022 6.23175 25.7173 5.12223 25.363 4.0745C25.1021 3.30783 24.6983 2.61159 24.1785 2.03172C23.6586 1.45185 23.0344 1.00154 22.347 0.7105C21.4077 0.315323 20.4129 0.109128 19.409 0.1015C17.732 -9.72301e-08 17.238 0 13 0C8.762 0 8.268 -9.72301e-08 6.591 0.1015C5.58709 0.109128 4.59234 0.315323 3.653 0.7105C2.96564 1.00154 2.34142 1.45185 1.82154 2.03172C1.30166 2.61159 0.897933 3.30783 0.637 4.0745C0.282703 5.12223 0.0978392 6.23175 0.0909999 7.3515C-8.71718e-08 9.222 0 9.773 0 14.5C0 19.227 -8.71718e-08 19.778 0.0909999 21.6485C0.104993 22.7722 0.289607 23.8851 0.637 24.94C0.896776 25.7032 1.30017 26.3954 1.82 26.97C2.33765 27.5533 2.96321 28.0037 3.653 28.2895C4.59234 28.6847 5.58709 28.8909 6.591 28.8985C8.268 29 8.762 29 13 29C17.238 29 17.732 29 19.409 28.8985C20.4129 28.8909 21.4077 28.6847 22.347 28.2895C23.0368 28.0037 23.6623 27.5533 24.18 26.97C24.6998 26.3954 25.1032 25.7032 25.363 24.94C25.717 23.8871 25.9018 22.7729 25.909 21.6485C26 19.778 26 19.227 26 14.5C26 9.773 26 9.222 25.909 7.3515ZM22.607 18.9515C22.5653 19.8463 22.3941 20.7277 22.1 21.5615C21.8476 22.257 21.4724 22.8889 20.9968 23.4195C20.5211 23.95 19.9546 24.3685 19.331 24.65C18.5764 24.9597 17.7817 25.1311 16.978 25.1575H9.022C8.21825 25.1311 7.42363 24.9597 6.669 24.65C6.02433 24.3828 5.44216 23.9565 4.966 23.403C4.49497 22.8828 4.1312 22.2544 3.9 21.5615C3.62122 20.7207 3.47179 19.8334 3.458 18.937V10.063C3.47179 9.16665 3.62122 8.27933 3.9 7.4385C4.13957 6.71945 4.52176 6.0701 5.018 5.539C5.48643 5.01645 6.04924 4.61114 6.669 4.35C7.42363 4.04029 8.21825 3.8689 9.022 3.8425H16.978C17.7817 3.8689 18.5764 4.04029 19.331 4.35C19.9757 4.61721 20.5578 5.0435 21.034 5.597C21.505 6.11719 21.8688 6.74559 22.1 7.4385C22.3777 8.28021 22.5313 9.16651 22.555 10.063V14.5C22.555 17.487 22.646 17.7915 22.607 18.937V18.9515ZM20.527 8.1635C20.3722 7.69513 20.1282 7.26978 19.8117 6.91681C19.4953 6.56384 19.1139 6.29164 18.694 6.119C18.1174 5.89608 17.5101 5.7881 16.9 5.8H9.1C8.48675 5.80669 7.87939 5.93432 7.306 6.177C6.89251 6.3418 6.5152 6.60288 6.19916 6.94289C5.88312 7.2829 5.63558 7.69405 5.473 8.149C5.28421 8.79478 5.19198 9.47081 5.2 10.15V18.85C5.21289 19.5332 5.3271 20.2094 5.538 20.851C5.69278 21.3194 5.93682 21.7447 6.25328 22.0977C6.56974 22.4507 6.95108 22.7229 7.371 22.8955C7.92567 23.123 8.50935 23.2503 9.1 23.2725H16.9C17.5133 23.2658 18.1206 23.1382 18.694 22.8955C19.1139 22.7229 19.4953 22.4507 19.8117 22.0977C20.1282 21.7447 20.3722 21.3194 20.527 20.851C20.7446 20.2114 20.859 19.534 20.865 18.85V10.15C20.8654 9.46531 20.7507 8.7866 20.527 8.149V8.1635ZM13 20.039C12.3485 20.039 11.7033 19.8956 11.1016 19.6171C10.4998 19.3386 9.95319 18.9303 9.4931 18.4158C9.033 17.9013 8.66843 17.2905 8.42029 16.6186C8.17214 15.9467 8.04529 15.2267 8.047 14.5C8.047 13.4039 8.33858 12.3324 8.88483 11.4212C9.43108 10.51 10.2074 9.80006 11.1156 9.38126C12.0238 8.96245 13.0229 8.85361 13.9866 9.06852C14.9503 9.28342 15.8351 9.8124 16.5291 10.5885C17.2231 11.3646 17.695 12.3529 17.8852 13.4283C18.0753 14.5037 17.9751 15.6179 17.5972 16.6298C17.2194 17.6416 16.5809 18.5057 15.7625 19.1126C14.9441 19.7195 13.9827 20.0419 13 20.039ZM18.2 10.0485C17.9126 10.0146 17.6467 9.86322 17.4534 9.62361C17.2601 9.384 17.1532 9.07307 17.1532 8.75075C17.1532 8.42843 17.2601 8.11751 17.4534 7.87789C17.6467 7.63828 17.9126 7.48693 18.2 7.453C18.4874 7.48693 18.7533 7.63828 18.9466 7.87789C19.1399 8.11751 19.2468 8.42843 19.2468 8.75075C19.2468 9.07307 19.1399 9.384 18.9466 9.62361C18.7533 9.86322 18.4874 10.0146 18.2 10.0485Z" fill="black"/>
</svg>
