<svg width="29" height="29" viewBox="0 0 29 29" fill="none" xmlns="http://www.w3.org/2000/svg">
<path fill-rule="evenodd" clip-rule="evenodd" d="M1.49127e-05 14.4994C0.000159348 11.2588 1.08583 8.11165 3.08376 5.56025C5.08169 3.00886 7.8767 1.20027 11.0227 0.423133C14.1687 -0.354 17.4844 -0.0548774 20.4405 1.27276C23.3966 2.6004 25.8228 4.88002 27.3319 7.74779C28.8409 10.6156 29.3458 13.9062 28.766 17.0945C28.1861 20.2827 26.555 23.1849 24.1329 25.3377C21.7108 27.4906 18.6373 28.77 15.4031 28.9718C12.1688 29.1737 8.96009 28.2862 6.28914 26.4512L1.39781 28.8969C1.21656 28.9867 1.01169 29.0174 0.812082 28.9846C0.612469 28.9518 0.428166 28.8573 0.285129 28.7142C0.142093 28.5712 0.0475323 28.3869 0.0147658 28.1873C-0.0180007 27.9877 0.0126782 27.7828 0.102481 27.6015L2.54815 22.7102C0.8846 20.2956 -0.00419869 17.4316 1.49127e-05 14.4994ZM8.17801 7.88736L8.57627 7.62056C8.97915 7.3522 9.4428 7.18897 9.92494 7.14574C10.4071 7.10251 10.8924 7.18066 11.3366 7.37306C11.7808 7.56546 12.1697 7.86599 12.468 8.24726C12.7663 8.62852 12.9644 9.07838 13.0442 9.55582L13.3149 11.174C13.4067 11.7253 13.3374 12.2914 13.1151 12.8041C12.8929 13.3169 12.5272 13.7545 12.0621 14.0644L10.7899 14.9112C11.5696 16.2894 12.7089 17.4301 14.0863 18.2113L14.9369 16.9392C15.2466 16.4744 15.6839 16.109 16.1963 15.8867C16.7087 15.6645 17.2744 15.5949 17.8253 15.6864L19.4435 15.9571C19.921 16.0369 20.3708 16.235 20.7521 16.5333C21.1334 16.8316 21.4339 17.2205 21.6263 17.6647C21.8187 18.1089 21.8968 18.5942 21.8536 19.0763C21.8104 19.5585 21.6471 20.0221 21.3788 20.425L21.112 20.8252C21.0244 20.961 20.9042 21.0727 20.7624 21.15C20.6205 21.2273 20.4616 21.2679 20.3 21.2679H18.3667C16.9701 21.2679 15.5872 20.9928 14.297 20.4583C13.0068 19.9239 11.8345 19.1404 10.8471 18.1528C9.85966 17.1652 9.07646 15.9928 8.5422 14.7025C8.00794 13.4122 7.73308 12.0292 7.73334 10.6327V8.69936C7.73361 8.53761 7.77446 8.37853 7.85214 8.23666C7.92983 8.0948 8.04187 7.9747 8.17801 7.88736Z" fill="black"/>
</svg>
