<svg width="30" height="29" viewBox="0 0 30 29" fill="none" xmlns="http://www.w3.org/2000/svg">
<path d="M30 14.5898C30 6.52986 23.2809 0 15 0C6.71344 0 0 6.52986 0 14.5898C0 21.8701 5.48344 27.9067 12.6562 29V18.8081H8.84719V14.5907H12.6562V11.3746C12.6562 7.71893 14.8922 5.70006 18.3197 5.70006C19.9613 5.70006 21.6797 5.98456 21.6797 5.98456V9.57457H19.785C17.925 9.57457 17.3438 10.7007 17.3438 11.8542V14.5898H21.5034L20.835 18.8072H17.3438V28.9991C24.5109 27.9058 30 21.8692 30 14.5889V14.5898Z" fill="black"/>
</svg>
